<svg width="1600" height="840" viewBox="0 0 1600 840" xmlns="http://www.w3.org/2000/svg">
  <defs>
    <linearGradient id="HG" x1="0" y1="0" x2="1600" y2="840" gradientUnits="userSpaceOnUse">
      <stop offset="0" stop-color="#38BDF8"/><stop offset="1" stop-color="#2563EB"/></linearGradient>
    <linearGradient id="HBg" x1="0" y1="0" x2="1600" y2="840" gradientUnits="userSpaceOnUse">
      <stop offset="0" stop-color="#131C34"/><stop offset="1" stop-color="#1A2747"/></linearGradient>
    <pattern id="HGrid" width="54" height="54" patternUnits="userSpaceOnUse">
      <rect x="4" y="4" width="46" height="46" rx="11" fill="none" stroke="#38BDF8" stroke-opacity="0.05" stroke-width="2"/>
    </pattern>
  </defs>
  <rect width="1600" height="840" fill="url(#HBg)"/>
  <rect width="1600" height="840" fill="url(#HGrid)"/>
  <text x="800" y="150" text-anchor="middle" font-family="Inter, 'Segoe UI', sans-serif" font-size="58" font-weight="700" fill="#E8EDF5" letter-spacing="-1.5">One person. Many personas.</text>
  <text x="800" y="205" text-anchor="middle" font-family="Inter, 'Segoe UI', sans-serif" font-size="25" fill="#9FB3D1">Every VS Code profile is you, optimized for a different job.</text><circle cx="380" cy="349" r="19" fill="#F5A623"/><rect x="323.0" y="378" width="34" height="34" rx="9" fill="url(#HG)"/><rect x="363.0" y="378" width="34" height="34" rx="9" fill="url(#HG)"/><rect x="403.0" y="378" width="34" height="34" rx="9" fill="url(#HG)"/><rect x="363.0" y="418" width="34" height="34" rx="9" fill="url(#HG)"/><text x="380" y="530" text-anchor="middle" font-family="Inter, 'Segoe UI', sans-serif" font-size="24" font-weight="700" fill="#F5A623">Work</text><circle cx="660" cy="349" r="17.5" fill="none" stroke="#38BDF8" stroke-opacity="0.4" stroke-width="3"/><rect x="604.5" y="379.5" width="31" height="31" rx="7.5" fill="none" stroke="#38BDF8" stroke-opacity="0.4" stroke-width="3"/><rect x="644.5" y="379.5" width="31" height="31" rx="7.5" fill="none" stroke="#38BDF8" stroke-opacity="0.4" stroke-width="3"/><rect x="684.5" y="379.5" width="31" height="31" rx="7.5" fill="none" stroke="#38BDF8" stroke-opacity="0.4" stroke-width="3"/><rect x="644.5" y="419.5" width="31" height="31" rx="7.5" fill="none" stroke="#38BDF8" stroke-opacity="0.4" stroke-width="3"/><text x="660" y="530" text-anchor="middle" font-family="Inter, 'Segoe UI', sans-serif" font-size="24" font-weight="400" fill="#9FB3D1">Public</text><circle cx="940" cy="349" r="17.5" fill="none" stroke="#38BDF8" stroke-opacity="0.4" stroke-width="3"/><rect x="884.5" y="379.5" width="31" height="31" rx="7.5" fill="none" stroke="#38BDF8" stroke-opacity="0.4" stroke-width="3"/><rect x="924.5" y="379.5" width="31" height="31" rx="7.5" fill="none" stroke="#38BDF8" stroke-opacity="0.4" stroke-width="3"/><rect x="964.5" y="379.5" width="31" height="31" rx="7.5" fill="none" stroke="#38BDF8" stroke-opacity="0.4" stroke-width="3"/><rect x="924.5" y="419.5" width="31" height="31" rx="7.5" fill="none" stroke="#38BDF8" stroke-opacity="0.4" stroke-width="3"/><text x="940" y="530" text-anchor="middle" font-family="Inter, 'Segoe UI', sans-serif" font-size="24" font-weight="400" fill="#9FB3D1">Private</text><circle cx="1220" cy="349" r="17.5" fill="none" stroke="#38BDF8" stroke-opacity="0.4" stroke-width="3"/><rect x="1164.5" y="379.5" width="31" height="31" rx="7.5" fill="none" stroke="#38BDF8" stroke-opacity="0.4" stroke-width="3"/><rect x="1204.5" y="379.5" width="31" height="31" rx="7.5" fill="none" stroke="#38BDF8" stroke-opacity="0.4" stroke-width="3"/><rect x="1244.5" y="379.5" width="31" height="31" rx="7.5" fill="none" stroke="#38BDF8" stroke-opacity="0.4" stroke-width="3"/><rect x="1204.5" y="419.5" width="31" height="31" rx="7.5" fill="none" stroke="#38BDF8" stroke-opacity="0.4" stroke-width="3"/><text x="1220" y="530" text-anchor="middle" font-family="Inter, 'Segoe UI', sans-serif" font-size="24" font-weight="400" fill="#9FB3D1">Demo Mode</text><text x="800" y="700" text-anchor="middle" font-family="Inter, 'Segoe UI', sans-serif" font-size="22" fill="#6B7FA3">Personas — easily manage the Git identities, VS Code profiles, and extensions that you need in different contexts.</text></svg>