<svg width="760" height="220" viewBox="0 0 760 220" xmlns="http://www.w3.org/2000/svg">
  <defs><linearGradient id="LLCellGradient" x1="0" y1="0" x2="154" y2="214" gradientUnits="userSpaceOnUse"><stop offset="0" stop-color="#38BDF8"/><stop offset="1" stop-color="#2563EB"/></linearGradient></defs>
  <g transform="translate(30,17) scale(0.87)"><circle cx="23"  cy="23" r="21.5" fill="none" stroke="#2563EB" stroke-opacity="0.55" stroke-width="3"/><circle cx="77"  cy="23" r="23" fill="#F5A623"/><circle cx="131" cy="23" r="21.5" fill="none" stroke="#2563EB" stroke-opacity="0.55" stroke-width="3"/><rect x="0" y="60" width="46" height="46" rx="11" fill="url(#LLCellGradient)"/><rect x="54" y="60" width="46" height="46" rx="11" fill="url(#LLCellGradient)"/><rect x="108" y="60" width="46" height="46" rx="11" fill="url(#LLCellGradient)"/><rect x="1.5" y="115.5" width="43" height="43" rx="9.5" fill="none" stroke="#2563EB" stroke-opacity="0.55" stroke-width="3"/><rect x="54" y="114" width="46" height="46" rx="11" fill="url(#LLCellGradient)"/><rect x="108" y="114" width="46" height="46" rx="11" fill="url(#LLCellGradient)"/><rect x="1.5" y="169.5" width="43" height="43" rx="9.5" fill="none" stroke="#2563EB" stroke-opacity="0.55" stroke-width="3"/><rect x="54" y="168" width="46" height="46" rx="11" fill="url(#LLCellGradient)"/><rect x="109.5" y="169.5" width="43" height="43" rx="9.5" fill="none" stroke="#2563EB" stroke-opacity="0.55" stroke-width="3"/></g>
  <text x="220" y="138" font-family="Inter, 'Segoe UI', sans-serif" font-size="88" font-weight="700" fill="#16213E" letter-spacing="-2">Personas</text>
</svg>