<svg width="760" height="560" viewBox="0 0 760 560" xmlns="http://www.w3.org/2000/svg">
  <defs><linearGradient id="MG" x1="0" y1="0" x2="154" y2="214" gradientUnits="userSpaceOnUse"><stop offset="0" stop-color="#38BDF8"/><stop offset="1" stop-color="#2563EB"/></linearGradient></defs>
  <rect width="760" height="560" fill="#181818"/>
  <text x="24" y="34" font-family="Inter, 'Segoe UI', sans-serif" font-size="13" font-weight="600" fill="#BBBBBB" letter-spacing="1">EXTENSIONS: MARKETPLACE</text>
  <rect x="20" y="50" width="720" height="34" rx="4" fill="#2A2A2A" stroke="#3C3C3C"/>
  <text x="34" y="72" font-family="Inter, 'Segoe UI', sans-serif" font-size="14" fill="#E0E0E0">personas</text><rect x="12" y="96" width="736" height="82" rx="6" fill="#04395E" fill-opacity="0.45"/><g transform="translate(24,104) scale(0.203125)">
      <rect width="256" height="256" rx="56" fill="#16213E"/>
      <g transform="translate(51,21)">
        <circle cx="23" cy="23" r="21.5" fill="none" stroke="#38BDF8" stroke-opacity="0.4" stroke-width="3"/>
        <circle cx="77" cy="23" r="23" fill="#F5A623"/>
        <circle cx="131" cy="23" r="21.5" fill="none" stroke="#38BDF8" stroke-opacity="0.4" stroke-width="3"/>
        <rect x="0" y="60" width="46" height="46" rx="11" fill="url(#MG)"/>
        <rect x="54" y="60" width="46" height="46" rx="11" fill="url(#MG)"/>
        <rect x="108" y="60" width="46" height="46" rx="11" fill="url(#MG)"/>
        <rect x="1.5" y="115.5" width="43" height="43" rx="9.5" fill="none" stroke="#38BDF8" stroke-opacity="0.4" stroke-width="3"/>
        <rect x="54" y="114" width="46" height="46" rx="11" fill="url(#MG)"/>
        <rect x="108" y="114" width="46" height="46" rx="11" fill="url(#MG)"/>
        <rect x="1.5" y="169.5" width="43" height="43" rx="9.5" fill="none" stroke="#38BDF8" stroke-opacity="0.4" stroke-width="3"/>
        <rect x="54" y="168" width="46" height="46" rx="11" fill="url(#MG)"/>
        <rect x="109.5" y="169.5" width="43" height="43" rx="9.5" fill="none" stroke="#38BDF8" stroke-opacity="0.4" stroke-width="3"/>
      </g></g><text x="92" y="120" font-family="Inter, 'Segoe UI', sans-serif" font-size="15.5" font-weight="600" fill="#E8E8E8">Personas</text><text x="92" y="142" font-family="Inter, 'Segoe UI', sans-serif" font-size="13" fill="#9D9D9D">Easily manage your dev personas: Git identities, profiles, and extensions.</text><text x="92" y="162" font-family="Inter, 'Segoe UI', sans-serif" font-size="12.5" fill="#7A7A7A">samerde</text><text x="668" y="162" text-anchor="end" font-family="Inter, 'Segoe UI', sans-serif" font-size="12.5" fill="#7A7A7A">1.2K installs</text><rect x="684" y="148" width="56" height="20" rx="3" fill="#0E639C"/><text x="712" y="162" text-anchor="middle" font-family="Inter, 'Segoe UI', sans-serif" font-size="12" font-weight="600" fill="#FFFFFF">Install</text><g transform="translate(24,194)"><rect width="52" height="52" rx="11.44" fill="#7C3AED"/><circle cx="26.0" cy="26.0" r="13.52" fill="#FFFFFF" fill-opacity="0.92"/></g><text x="92" y="210" font-family="Inter, 'Segoe UI', sans-serif" font-size="15.5" font-weight="600" fill="#E8E8E8">Profile Switcher Pro</text><text x="92" y="232" font-family="Inter, 'Segoe UI', sans-serif" font-size="13" fill="#9D9D9D">Quickly switch between VS Code profiles from the status bar.</text><text x="92" y="252" font-family="Inter, 'Segoe UI', sans-serif" font-size="12.5" fill="#7A7A7A">acme-tools</text><text x="668" y="252" text-anchor="end" font-family="Inter, 'Segoe UI', sans-serif" font-size="12.5" fill="#7A7A7A">84K installs</text><rect x="684" y="238" width="56" height="20" rx="3" fill="#0E639C"/><text x="712" y="252" text-anchor="middle" font-family="Inter, 'Segoe UI', sans-serif" font-size="12" font-weight="600" fill="#FFFFFF">Install</text><g transform="translate(24,284)"><rect width="52" height="52" rx="11.44" fill="#0E9F6E"/><rect x="13.52" y="15.6" width="6.76" height="21.84" rx="3" fill="#FFF" fill-opacity="0.92"/><rect x="23.400000000000002" y="11.44" width="6.76" height="26.0" rx="3" fill="#FFF" fill-opacity="0.92"/><rect x="33.28" y="19.76" width="6.76" height="17.68" rx="3" fill="#FFF" fill-opacity="0.92"/></g><text x="92" y="300" font-family="Inter, 'Segoe UI', sans-serif" font-size="15.5" font-weight="600" fill="#E8E8E8">Extension Pack Builder</text><text x="92" y="322" font-family="Inter, 'Segoe UI', sans-serif" font-size="13" fill="#9D9D9D">Bundle your favorite extensions into shareable packs.</text><text x="92" y="342" font-family="Inter, 'Segoe UI', sans-serif" font-size="12.5" fill="#7A7A7A">devkit-labs</text><text x="668" y="342" text-anchor="end" font-family="Inter, 'Segoe UI', sans-serif" font-size="12.5" fill="#7A7A7A">312K installs</text><rect x="684" y="328" width="56" height="20" rx="3" fill="#0E639C"/><text x="712" y="342" text-anchor="middle" font-family="Inter, 'Segoe UI', sans-serif" font-size="12" font-weight="600" fill="#FFFFFF">Install</text><g transform="translate(24,374)"><rect width="52" height="52" rx="11.44" fill="#D97706"/><rect x="15.6" y="15.6" width="20.8" height="20.8" rx="6" transform="rotate(45 26.0 26.0)" fill="#FFF" fill-opacity="0.92"/></g><text x="92" y="390" font-family="Inter, 'Segoe UI', sans-serif" font-size="15.5" font-weight="600" fill="#E8E8E8">Settings Sync Helper</text><text x="92" y="412" font-family="Inter, 'Segoe UI', sans-serif" font-size="13" fill="#9D9D9D">Extra controls for syncing settings across machines.</text><text x="92" y="432" font-family="Inter, 'Segoe UI', sans-serif" font-size="12.5" fill="#7A7A7A">syncworks</text><text x="668" y="432" text-anchor="end" font-family="Inter, 'Segoe UI', sans-serif" font-size="12.5" fill="#7A7A7A">1.1M installs</text><rect x="684" y="418" width="56" height="20" rx="3" fill="#0E639C"/><text x="712" y="432" text-anchor="middle" font-family="Inter, 'Segoe UI', sans-serif" font-size="12" font-weight="600" fill="#FFFFFF">Install</text><g transform="translate(24,464)"><rect width="52" height="52" rx="11.44" fill="#DC2626"/><path d="M 26.0 12.48 L 39.52 37.44 L 12.48 37.44 Z" fill="#FFFFFF" fill-opacity="0.92"/></g><text x="92" y="480" font-family="Inter, 'Segoe UI', sans-serif" font-size="15.5" font-weight="600" fill="#E8E8E8">Workspace Recommender</text><text x="92" y="502" font-family="Inter, 'Segoe UI', sans-serif" font-size="13" fill="#9D9D9D">Suggests extensions based on workspace contents.</text><text x="92" y="522" font-family="Inter, 'Segoe UI', sans-serif" font-size="12.5" fill="#7A7A7A">hintful</text><text x="668" y="522" text-anchor="end" font-family="Inter, 'Segoe UI', sans-serif" font-size="12.5" fill="#7A7A7A">56K installs</text><rect x="684" y="508" width="56" height="20" rx="3" fill="#0E639C"/><text x="712" y="522" text-anchor="middle" font-family="Inter, 'Segoe UI', sans-serif" font-size="12" font-weight="600" fill="#FFFFFF">Install</text></svg>