<svg width="1268" height="686" viewBox="0 0 1268 686" xmlns="http://www.w3.org/2000/svg">
  <defs><linearGradient id="UG" x1="0" y1="0" x2="300" y2="300" gradientUnits="userSpaceOnUse"><stop offset="0" stop-color="#38BDF8"/><stop offset="1" stop-color="#2563EB"/></linearGradient></defs>
  <rect width="1268" height="686" fill="#1B2437"/>
  <g transform="translate(28,22) scale(0.171875)">
      <rect width="256" height="256" rx="56" fill="#16213E"/>
      <g transform="translate(51,21)">
        <circle cx="23" cy="23" r="21.5" fill="none" stroke="#38BDF8" stroke-opacity="0.4" stroke-width="3"/>
        <circle cx="77" cy="23" r="23" fill="#F5A623"/>
        <circle cx="131" cy="23" r="21.5" fill="none" stroke="#38BDF8" stroke-opacity="0.4" stroke-width="3"/>
        <rect x="0" y="60" width="46" height="46" rx="11" fill="url(#MG)"/>
        <rect x="54" y="60" width="46" height="46" rx="11" fill="url(#MG)"/>
        <rect x="108" y="60" width="46" height="46" rx="11" fill="url(#MG)"/>
        <rect x="1.5" y="115.5" width="43" height="43" rx="9.5" fill="none" stroke="#38BDF8" stroke-opacity="0.4" stroke-width="3"/>
        <rect x="54" y="114" width="46" height="46" rx="11" fill="url(#MG)"/>
        <rect x="108" y="114" width="46" height="46" rx="11" fill="url(#MG)"/>
        <rect x="1.5" y="169.5" width="43" height="43" rx="9.5" fill="none" stroke="#38BDF8" stroke-opacity="0.4" stroke-width="3"/>
        <rect x="54" y="168" width="46" height="46" rx="11" fill="url(#MG)"/>
        <rect x="109.5" y="169.5" width="43" height="43" rx="9.5" fill="none" stroke="#38BDF8" stroke-opacity="0.4" stroke-width="3"/>
      </g></g>
  <text x="88" y="44" font-family="Inter, 'Segoe UI', sans-serif" font-size="21" font-weight="700" fill="#E8EDF5">Personas</text>
  <text x="88" y="66" font-family="Inter, 'Segoe UI', sans-serif" font-size="13.5" fill="#9FB3D1">9 extensions &#183; 6 profiles &#183; 1 orphaned (38.2 MB reclaimable)</text>
  <rect x="918" y="30" width="120" height="30" rx="15" fill="#243252"/>
  <text x="978" y="50" text-anchor="middle" font-family="Inter, 'Segoe UI', sans-serif" font-size="13" fill="#E8EDF5">All</text>
  <rect x="1048" y="30" width="120" height="30" rx="15" fill="none" stroke="#3B4A6B"/>
  <text x="1108" y="50" text-anchor="middle" font-family="Inter, 'Segoe UI', sans-serif" font-size="13" fill="#9FB3D1">Orphaned</text><text x="414.0" y="114" text-anchor="middle" font-family="Inter, 'Segoe UI', sans-serif" font-size="14.5" font-weight="600" fill="#C7D3E8">Work</text><text x="562.0" y="114" text-anchor="middle" font-family="Inter, 'Segoe UI', sans-serif" font-size="14.5" font-weight="600" fill="#C7D3E8">Public</text><text x="710.0" y="114" text-anchor="middle" font-family="Inter, 'Segoe UI', sans-serif" font-size="14.5" font-weight="600" fill="#C7D3E8">Private</text><text x="858.0" y="114" text-anchor="middle" font-family="Inter, 'Segoe UI', sans-serif" font-size="14.5" font-weight="600" fill="#C7D3E8">Blogging</text><text x="1006.0" y="114" text-anchor="middle" font-family="Inter, 'Segoe UI', sans-serif" font-size="14.5" font-weight="600" fill="#C7D3E8">.NET Projects</text><text x="1154.0" y="114" text-anchor="middle" font-family="Inter, 'Segoe UI', sans-serif" font-size="14.5" font-weight="600" fill="#C7D3E8">Demo Mode</text><rect x="16" y="130" width="1236" height="54" fill="#202B45"/><text x="30" y="156" font-family="Inter, 'Segoe UI', sans-serif" font-size="15" font-weight="600" fill="#E8EDF5">PowerShell</text><text x="30" y="174" font-family="Inter, 'Segoe UI', sans-serif" font-size="12" fill="#7A8AA8">v2025.4.0</text><rect x="399.0" y="142" width="30" height="30" rx="8" fill="url(#UG)"/><path d="M 407.0 157.0 l 5.0 5.0 l 9.0 -11.0" fill="none" stroke="#FFFFFF" stroke-width="3.2" stroke-linecap="round" stroke-linejoin="round"/><rect x="547.0" y="142" width="30" height="30" rx="8" fill="url(#UG)"/><path d="M 555.0 157.0 l 5.0 5.0 l 9.0 -11.0" fill="none" stroke="#FFFFFF" stroke-width="3.2" stroke-linecap="round" stroke-linejoin="round"/><rect x="695.0" y="142" width="30" height="30" rx="8" fill="url(#UG)"/><path d="M 703.0 157.0 l 5.0 5.0 l 9.0 -11.0" fill="none" stroke="#FFFFFF" stroke-width="3.2" stroke-linecap="round" stroke-linejoin="round"/><rect x="844.0" y="143" width="28" height="28" rx="7" fill="none" stroke="#3B4A6B" stroke-width="2"/><rect x="991.0" y="142" width="30" height="30" rx="8" fill="url(#UG)"/><path d="M 999.0 157.0 l 5.0 5.0 l 9.0 -11.0" fill="none" stroke="#FFFFFF" stroke-width="3.2" stroke-linecap="round" stroke-linejoin="round"/><rect x="1139.0" y="142" width="30" height="30" rx="8" fill="url(#UG)"/><path d="M 1147.0 157.0 l 5.0 5.0 l 9.0 -11.0" fill="none" stroke="#FFFFFF" stroke-width="3.2" stroke-linecap="round" stroke-linejoin="round"/><text x="30" y="210" font-family="Inter, 'Segoe UI', sans-serif" font-size="15" font-weight="600" fill="#E8EDF5">Pester Test Explorer</text><text x="30" y="228" font-family="Inter, 'Segoe UI', sans-serif" font-size="12" fill="#7A8AA8">v1.8.2</text><rect x="399.0" y="196" width="30" height="30" rx="8" fill="url(#UG)"/><path d="M 407.0 211.0 l 5.0 5.0 l 9.0 -11.0" fill="none" stroke="#FFFFFF" stroke-width="3.2" stroke-linecap="round" stroke-linejoin="round"/><rect x="548.0" y="197" width="28" height="28" rx="7" fill="none" stroke="#3B4A6B" stroke-width="2"/><rect x="695.0" y="196" width="30" height="30" rx="8" fill="url(#UG)"/><path d="M 703.0 211.0 l 5.0 5.0 l 9.0 -11.0" fill="none" stroke="#FFFFFF" stroke-width="3.2" stroke-linecap="round" stroke-linejoin="round"/><rect x="844.0" y="197" width="28" height="28" rx="7" fill="none" stroke="#3B4A6B" stroke-width="2"/><rect x="992.0" y="197" width="28" height="28" rx="7" fill="none" stroke="#3B4A6B" stroke-width="2"/><rect x="1140.0" y="197" width="28" height="28" rx="7" fill="none" stroke="#3B4A6B" stroke-width="2"/><rect x="16" y="238" width="1236" height="54" fill="#202B45"/><text x="30" y="264" font-family="Inter, 'Segoe UI', sans-serif" font-size="15" font-weight="600" fill="#E8EDF5">C# Dev Kit</text><text x="30" y="282" font-family="Inter, 'Segoe UI', sans-serif" font-size="12" fill="#7A8AA8">v1.16.6</text><rect x="400.0" y="251" width="28" height="28" rx="7" fill="none" stroke="#3B4A6B" stroke-width="2"/><rect x="548.0" y="251" width="28" height="28" rx="7" fill="none" stroke="#3B4A6B" stroke-width="2"/><rect x="696.0" y="251" width="28" height="28" rx="7" fill="none" stroke="#3B4A6B" stroke-width="2"/><rect x="844.0" y="251" width="28" height="28" rx="7" fill="none" stroke="#3B4A6B" stroke-width="2"/><rect x="991.0" y="250" width="30" height="30" rx="8" fill="url(#UG)"/><path d="M 999.0 265.0 l 5.0 5.0 l 9.0 -11.0" fill="none" stroke="#FFFFFF" stroke-width="3.2" stroke-linecap="round" stroke-linejoin="round"/><rect x="1140.0" y="251" width="28" height="28" rx="7" fill="none" stroke="#3B4A6B" stroke-width="2"/><text x="30" y="318" font-family="Inter, 'Segoe UI', sans-serif" font-size="15" font-weight="600" fill="#E8EDF5">GitLens</text><text x="30" y="336" font-family="Inter, 'Segoe UI', sans-serif" font-size="12" fill="#7A8AA8">v16.3.1</text><rect x="399.0" y="304" width="30" height="30" rx="8" fill="url(#UG)"/><path d="M 407.0 319.0 l 5.0 5.0 l 9.0 -11.0" fill="none" stroke="#FFFFFF" stroke-width="3.2" stroke-linecap="round" stroke-linejoin="round"/><rect x="547.0" y="304" width="30" height="30" rx="8" fill="url(#UG)"/><path d="M 555.0 319.0 l 5.0 5.0 l 9.0 -11.0" fill="none" stroke="#FFFFFF" stroke-width="3.2" stroke-linecap="round" stroke-linejoin="round"/><rect x="695.0" y="304" width="30" height="30" rx="8" fill="url(#UG)"/><path d="M 703.0 319.0 l 5.0 5.0 l 9.0 -11.0" fill="none" stroke="#FFFFFF" stroke-width="3.2" stroke-linecap="round" stroke-linejoin="round"/><rect x="843.0" y="304" width="30" height="30" rx="8" fill="url(#UG)"/><path d="M 851.0 319.0 l 5.0 5.0 l 9.0 -11.0" fill="none" stroke="#FFFFFF" stroke-width="3.2" stroke-linecap="round" stroke-linejoin="round"/><rect x="991.0" y="304" width="30" height="30" rx="8" fill="url(#UG)"/><path d="M 999.0 319.0 l 5.0 5.0 l 9.0 -11.0" fill="none" stroke="#FFFFFF" stroke-width="3.2" stroke-linecap="round" stroke-linejoin="round"/><rect x="1140.0" y="305" width="28" height="28" rx="7" fill="none" stroke="#3B4A6B" stroke-width="2"/><rect x="16" y="346" width="1236" height="54" fill="#202B45"/><text x="30" y="372" font-family="Inter, 'Segoe UI', sans-serif" font-size="15" font-weight="600" fill="#E8EDF5">markdownlint</text><text x="30" y="390" font-family="Inter, 'Segoe UI', sans-serif" font-size="12" fill="#7A8AA8">v0.58.0</text><rect x="399.0" y="358" width="30" height="30" rx="8" fill="url(#UG)"/><path d="M 407.0 373.0 l 5.0 5.0 l 9.0 -11.0" fill="none" stroke="#FFFFFF" stroke-width="3.2" stroke-linecap="round" stroke-linejoin="round"/><rect x="548.0" y="359" width="28" height="28" rx="7" fill="none" stroke="#3B4A6B" stroke-width="2"/><rect x="696.0" y="359" width="28" height="28" rx="7" fill="none" stroke="#3B4A6B" stroke-width="2"/><rect x="843.0" y="358" width="30" height="30" rx="8" fill="url(#UG)"/><path d="M 851.0 373.0 l 5.0 5.0 l 9.0 -11.0" fill="none" stroke="#FFFFFF" stroke-width="3.2" stroke-linecap="round" stroke-linejoin="round"/><rect x="992.0" y="359" width="28" height="28" rx="7" fill="none" stroke="#3B4A6B" stroke-width="2"/><rect x="1140.0" y="359" width="28" height="28" rx="7" fill="none" stroke="#3B4A6B" stroke-width="2"/><text x="30" y="426" font-family="Inter, 'Segoe UI', sans-serif" font-size="15" font-weight="600" fill="#E8EDF5">Marp for VS Code</text><text x="30" y="444" font-family="Inter, 'Segoe UI', sans-serif" font-size="12" fill="#7A8AA8">v3.1.0</text><rect x="400.0" y="413" width="28" height="28" rx="7" fill="none" stroke="#3B4A6B" stroke-width="2"/><rect x="548.0" y="413" width="28" height="28" rx="7" fill="none" stroke="#3B4A6B" stroke-width="2"/><rect x="696.0" y="413" width="28" height="28" rx="7" fill="none" stroke="#3B4A6B" stroke-width="2"/><rect x="843.0" y="412" width="30" height="30" rx="8" fill="url(#UG)"/><path d="M 851.0 427.0 l 5.0 5.0 l 9.0 -11.0" fill="none" stroke="#FFFFFF" stroke-width="3.2" stroke-linecap="round" stroke-linejoin="round"/><rect x="992.0" y="413" width="28" height="28" rx="7" fill="none" stroke="#3B4A6B" stroke-width="2"/><rect x="1139.0" y="412" width="30" height="30" rx="8" fill="url(#UG)"/><path d="M 1147.0 427.0 l 5.0 5.0 l 9.0 -11.0" fill="none" stroke="#FFFFFF" stroke-width="3.2" stroke-linecap="round" stroke-linejoin="round"/><rect x="16" y="454" width="1236" height="54" fill="#202B45"/><text x="30" y="480" font-family="Inter, 'Segoe UI', sans-serif" font-size="15" font-weight="600" fill="#E8EDF5">Prettier</text><text x="30" y="498" font-family="Inter, 'Segoe UI', sans-serif" font-size="12" fill="#7A8AA8">v11.0.0</text><rect x="400.0" y="467" width="28" height="28" rx="7" fill="none" stroke="#3B4A6B" stroke-width="2"/><rect x="547.0" y="466" width="30" height="30" rx="8" fill="url(#UG)"/><path d="M 555.0 481.0 l 5.0 5.0 l 9.0 -11.0" fill="none" stroke="#FFFFFF" stroke-width="3.2" stroke-linecap="round" stroke-linejoin="round"/><rect x="696.0" y="467" width="28" height="28" rx="7" fill="none" stroke="#3B4A6B" stroke-width="2"/><rect x="843.0" y="466" width="30" height="30" rx="8" fill="url(#UG)"/><path d="M 851.0 481.0 l 5.0 5.0 l 9.0 -11.0" fill="none" stroke="#FFFFFF" stroke-width="3.2" stroke-linecap="round" stroke-linejoin="round"/><rect x="992.0" y="467" width="28" height="28" rx="7" fill="none" stroke="#3B4A6B" stroke-width="2"/><rect x="1140.0" y="467" width="28" height="28" rx="7" fill="none" stroke="#3B4A6B" stroke-width="2"/><text x="30" y="534" font-family="Inter, 'Segoe UI', sans-serif" font-size="15" font-weight="600" fill="#E8EDF5">Error Lens</text><text x="30" y="552" font-family="Inter, 'Segoe UI', sans-serif" font-size="12" fill="#7A8AA8">v3.26.0</text><rect x="232" y="522" width="92" height="24" rx="12" fill="#F5A623" fill-opacity="0.16" stroke="#F5A623" stroke-width="1.5"/><text x="278" y="538" text-anchor="middle" font-family="Inter, 'Segoe UI', sans-serif" font-size="11" font-weight="600" fill="#F5A623">ALL PROFILES</text><rect x="399.0" y="520" width="30" height="30" rx="8" fill="#F5A623" fill-opacity="0.85"/><path d="M 407.0 535.0 l 5.0 5.0 l 9.0 -11.0" fill="none" stroke="#16213E" stroke-width="3.2" stroke-linecap="round" stroke-linejoin="round"/><rect x="547.0" y="520" width="30" height="30" rx="8" fill="#F5A623" fill-opacity="0.85"/><path d="M 555.0 535.0 l 5.0 5.0 l 9.0 -11.0" fill="none" stroke="#16213E" stroke-width="3.2" stroke-linecap="round" stroke-linejoin="round"/><rect x="695.0" y="520" width="30" height="30" rx="8" fill="#F5A623" fill-opacity="0.85"/><path d="M 703.0 535.0 l 5.0 5.0 l 9.0 -11.0" fill="none" stroke="#16213E" stroke-width="3.2" stroke-linecap="round" stroke-linejoin="round"/><rect x="843.0" y="520" width="30" height="30" rx="8" fill="#F5A623" fill-opacity="0.85"/><path d="M 851.0 535.0 l 5.0 5.0 l 9.0 -11.0" fill="none" stroke="#16213E" stroke-width="3.2" stroke-linecap="round" stroke-linejoin="round"/><rect x="991.0" y="520" width="30" height="30" rx="8" fill="#F5A623" fill-opacity="0.85"/><path d="M 999.0 535.0 l 5.0 5.0 l 9.0 -11.0" fill="none" stroke="#16213E" stroke-width="3.2" stroke-linecap="round" stroke-linejoin="round"/><rect x="1139.0" y="520" width="30" height="30" rx="8" fill="#F5A623" fill-opacity="0.85"/><path d="M 1147.0 535.0 l 5.0 5.0 l 9.0 -11.0" fill="none" stroke="#16213E" stroke-width="3.2" stroke-linecap="round" stroke-linejoin="round"/><rect x="16" y="562" width="1236" height="54" fill="#202B45"/><text x="30" y="588" font-family="Inter, 'Segoe UI', sans-serif" font-size="15" font-weight="600" fill="#8B96AD">Old Theme Pack</text><text x="30" y="606" font-family="Inter, 'Segoe UI', sans-serif" font-size="12" fill="#7A8AA8">v0.4.1</text><rect x="232" y="576" width="92" height="24" rx="12" fill="#F87171" fill-opacity="0.14" stroke="#F87171" stroke-width="1.5"/><text x="278" y="592" text-anchor="middle" font-family="Inter, 'Segoe UI', sans-serif" font-size="11" font-weight="600" fill="#F87171">ORPHANED</text><rect x="400.0" y="575" width="28" height="28" rx="7" fill="none" stroke="#3B4A6B" stroke-width="2"/><rect x="548.0" y="575" width="28" height="28" rx="7" fill="none" stroke="#3B4A6B" stroke-width="2"/><rect x="696.0" y="575" width="28" height="28" rx="7" fill="none" stroke="#3B4A6B" stroke-width="2"/><rect x="844.0" y="575" width="28" height="28" rx="7" fill="none" stroke="#3B4A6B" stroke-width="2"/><rect x="992.0" y="575" width="28" height="28" rx="7" fill="none" stroke="#3B4A6B" stroke-width="2"/><rect x="1140.0" y="575" width="28" height="28" rx="7" fill="none" stroke="#3B4A6B" stroke-width="2"/><text x="30" y="660" font-family="Inter, 'Segoe UI', sans-serif" font-size="13" fill="#7A8AA8">Click any cell to install or remove &#183; Review orphaned extensions &#8594;</text></svg>